<svg width="94" height="100" viewBox="0 0 94 100" fill="none" xmlns="http://www.w3.org/2000/svg">
<g filter="url(#filter0_d_1460_5187)">
<rect x="24" y="25" width="40" height="40" rx="10" fill="#0890FE"/>
</g>
<g clip-path="url(#clip0_1460_5187)">
<path d="M44.2759 47.6666L45.6092 46.3333L44.6666 45.3906L43.3332 46.724L42.2759 45.6666L43.6092 44.3333L42.6666 43.3906L41.3332 44.724L40.4472 43.8386C40.3222 43.7136 40.1527 43.6434 39.9759 43.6434C39.7991 43.6434 39.6296 43.7136 39.5046 43.8386L38.5046 44.8386C37.8359 45.5064 37.4257 46.3898 37.3471 47.3316C37.2685 48.2734 37.5265 49.2125 38.0752 49.982L36.1952 51.862C36.1316 51.9235 36.0808 51.997 36.0458 52.0784C36.0109 52.1597 35.9925 52.2472 35.9917 52.3357C35.991 52.4242 36.0078 52.512 36.0413 52.5939C36.0749 52.6759 36.1244 52.7503 36.187 52.8129C36.2496 52.8755 36.324 52.925 36.4059 52.9585C36.4879 52.992 36.5756 53.0089 36.6642 53.0081C36.7527 53.0074 36.8402 52.989 36.9215 52.954C37.0028 52.9191 37.0764 52.8683 37.1379 52.8046L39.0179 50.9246C39.7875 51.4734 40.7268 51.7314 41.6687 51.6527C42.6107 51.574 43.4941 51.1636 44.1619 50.4946L45.1619 49.4946C45.2869 49.3696 45.3571 49.2001 45.3571 49.0233C45.3571 48.8465 45.2869 48.677 45.1619 48.552L44.2759 47.6666Z" fill="white"/>
<path d="M47.5524 46.1612C47.6775 46.2862 47.847 46.3564 48.0238 46.3564C48.2005 46.3564 48.3701 46.2862 48.4951 46.1612L49.4951 45.1612C50.1638 44.4934 50.5739 43.61 50.6525 42.6683C50.7312 41.7265 50.4732 40.7873 49.9244 40.0179L51.8044 38.1379C51.8681 38.0764 51.9189 38.0028 51.9538 37.9215C51.9888 37.8402 52.0072 37.7527 52.0079 37.6642C52.0087 37.5756 51.9918 37.4879 51.9583 37.4059C51.9248 37.324 51.8753 37.2496 51.8127 37.187C51.7501 37.1244 51.6757 37.0749 51.5937 37.0413C51.5118 37.0078 51.424 36.991 51.3355 36.9917C51.247 36.9925 51.1595 37.0109 51.0782 37.0458C50.9968 37.0808 50.9233 37.1316 50.8618 37.1952L48.9818 39.0752C48.2122 38.5264 47.2729 38.2684 46.3309 38.3472C45.389 38.4259 44.5055 38.8363 43.8378 39.5052L42.8378 40.5052C42.7128 40.6302 42.6426 40.7998 42.6426 40.9766C42.6426 41.1533 42.7128 41.3229 42.8378 41.4479L47.5524 46.1612Z" fill="white"/>
</g>
<defs>
<filter id="filter0_d_1460_5187" x="-6" y="0" width="100" height="100" filterUnits="userSpaceOnUse" color-interpolation-filters="sRGB">
<feFlood flood-opacity="0" result="BackgroundImageFix"/>
<feColorMatrix in="SourceAlpha" type="matrix" values="0 0 0 0 0 0 0 0 0 0 0 0 0 0 0 0 0 0 127 0" result="hardAlpha"/>
<feOffset dy="5"/>
<feGaussianBlur stdDeviation="15"/>
<feColorMatrix type="matrix" values="0 0 0 0 0 0 0 0 0 0 0 0 0 0 0 0 0 0 0.05 0"/>
<feBlend mode="normal" in2="BackgroundImageFix" result="effect1_dropShadow_1460_5187"/>
<feBlend mode="normal" in="SourceGraphic" in2="effect1_dropShadow_1460_5187" result="shape"/>
</filter>
<clipPath id="clip0_1460_5187">
<rect width="16" height="16" fill="white" transform="translate(36 37)"/>
</clipPath>
</defs>
</svg>
