<svg width="28" height="28" viewBox="0 0 28 28" fill="none" xmlns="http://www.w3.org/2000/svg">
<path d="M26.8333 24.5H25.6667V15.1667H23.3333V24.5H18.6667V15.1667H16.3333V24.5H11.6667V15.1667H9.33333V24.5H4.66667V15.1667H2.33333V24.5H1.16667C0.522667 24.5 0 25.0215 0 25.6667C0 26.3118 0.522667 26.8333 1.16667 26.8333H26.8333C27.4773 26.8333 28 26.3118 28 25.6667C28 25.0215 27.4773 24.5 26.8333 24.5Z" fill="white"/>
<path d="M27.3922 7.14225L14.5588 0.142254C14.21 -0.0467465 13.79 -0.0467465 13.4412 0.142254L0.607833 7.14225C0.233333 7.34642 0 7.73959 0 8.16659V11.6666C0 12.3118 0.522667 12.8333 1.16667 12.8333H26.8333C27.4773 12.8333 28 12.3118 28 11.6666V8.16659C28 7.73959 27.7667 7.34642 27.3922 7.14225ZM14 9.33325C12.7108 9.33325 11.6667 8.28909 11.6667 6.99992C11.6667 5.71075 12.7108 4.66659 14 4.66659C15.2892 4.66659 16.3333 5.71075 16.3333 6.99992C16.3333 8.28909 15.2892 9.33325 14 9.33325Z" fill="white"/>
</svg>
