<svg width="94" height="100" viewBox="0 0 94 100" fill="none" xmlns="http://www.w3.org/2000/svg">
<g filter="url(#filter0_d_1460_17681)">
<rect x="24" y="25" width="40" height="40" rx="10" fill="#FFAF2A"/>
</g>
<path d="M50.0002 37H38.0002C37.6322 37 37.3335 37.298 37.3335 37.6667V53L40.0002 51L42.0002 53L44.0002 51L46.0002 53L48.0002 51L50.6668 53V37.6667C50.6668 37.298 50.3682 37 50.0002 37ZM44.6668 47.6667H40.0002V46.3333H44.6668V47.6667ZM44.6668 45H40.0002V43.6667H44.6668V45ZM44.6668 42.3333H40.0002V41H44.6668V42.3333ZM48.0002 47.6667H46.0002V46.3333H48.0002V47.6667ZM48.0002 45H46.0002V43.6667H48.0002V45ZM48.0002 42.3333H46.0002V41H48.0002V42.3333Z" fill="white"/>
<defs>
<filter id="filter0_d_1460_17681" x="-6" y="0" width="100" height="100" filterUnits="userSpaceOnUse" color-interpolation-filters="sRGB">
<feFlood flood-opacity="0" result="BackgroundImageFix"/>
<feColorMatrix in="SourceAlpha" type="matrix" values="0 0 0 0 0 0 0 0 0 0 0 0 0 0 0 0 0 0 127 0" result="hardAlpha"/>
<feOffset dy="5"/>
<feGaussianBlur stdDeviation="15"/>
<feColorMatrix type="matrix" values="0 0 0 0 0 0 0 0 0 0 0 0 0 0 0 0 0 0 0.05 0"/>
<feBlend mode="normal" in2="BackgroundImageFix" result="effect1_dropShadow_1460_17681"/>
<feBlend mode="normal" in="SourceGraphic" in2="effect1_dropShadow_1460_17681" result="shape"/>
</filter>
</defs>
</svg>
