<svg width="94" height="100" viewBox="0 0 94 100" fill="none" xmlns="http://www.w3.org/2000/svg">
<g filter="url(#filter0_d_1460_4876)">
<rect x="24" y="25" width="40" height="40" rx="10" fill="#3629B7"/>
</g>
<path d="M44.4731 37.2002C44.3454 37.0789 44.176 37.0112 43.9998 37.0112C43.8236 37.0112 43.6542 37.0789 43.5265 37.2002C43.3011 37.4249 37.9998 42.8075 37.9998 46.3335C37.992 47.1236 38.1419 47.9073 38.4407 48.6388C38.7395 49.3702 39.1812 50.0347 39.7399 50.5934C40.2986 51.1521 40.9631 51.5938 41.6946 51.8926C42.426 52.1914 43.2097 52.3413 43.9998 52.3335C44.7899 52.3413 45.5736 52.1914 46.305 51.8926C47.0365 51.5938 47.701 51.1521 48.2597 50.5934C48.8184 50.0347 49.2601 49.3702 49.5589 48.6388C49.8576 47.9073 50.0075 47.1236 49.9998 46.3335C49.9998 42.8075 44.6985 37.4249 44.4731 37.2002ZM44.6665 49.0002H43.9998C43.648 49.006 43.2986 48.9411 42.9724 48.8091C42.6462 48.6772 42.3499 48.481 42.1011 48.2322C41.8523 47.9834 41.6561 47.6871 41.5242 47.3609C41.3922 47.0347 41.3273 46.6853 41.3331 46.3335V45.6668H42.6665V46.3335C42.6665 46.6871 42.8069 47.0263 43.057 47.2763C43.307 47.5264 43.6462 47.6668 43.9998 47.6668H44.6665V49.0002Z" fill="white"/>
<defs>
<filter id="filter0_d_1460_4876" x="-6" y="0" width="100" height="100" filterUnits="userSpaceOnUse" color-interpolation-filters="sRGB">
<feFlood flood-opacity="0" result="BackgroundImageFix"/>
<feColorMatrix in="SourceAlpha" type="matrix" values="0 0 0 0 0 0 0 0 0 0 0 0 0 0 0 0 0 0 127 0" result="hardAlpha"/>
<feOffset dy="5"/>
<feGaussianBlur stdDeviation="15"/>
<feColorMatrix type="matrix" values="0 0 0 0 0 0 0 0 0 0 0 0 0 0 0 0 0 0 0.05 0"/>
<feBlend mode="normal" in2="BackgroundImageFix" result="effect1_dropShadow_1460_4876"/>
<feBlend mode="normal" in="SourceGraphic" in2="effect1_dropShadow_1460_4876" result="shape"/>
</filter>
</defs>
</svg>
